# xmcd CD database file
#
# Track frame offsets:
#	150
#	9875
#	26169
#	37156
#	44943
#	54685
#	63068
#	73631
#	87566
#	99352
#	112457
#	121164
#	135394
#	147591
#	156464
#	167357
#	180096
#	202580
#	211179
#	222062
#
# Disc length: 3158 seconds
#
# Revision: 0
# Processed by: cddbd v1.5.2PL0 Copyright (c) Steve Scherf et al.
# Submitted via: CDex 1.51
#
DISCID=1c0c5414
DTITLE=Della Reese - Essential
DYEAR=2004
DGENRE=Jazz
TTITLE0=Don't You Know
TTITLE1=Stormy Weather
TTITLE2=What is There to Say
TTITLE3=I Could Have Danced All Night
TTITLE4=You Came a Long Way From St. Louis
TTITLE5=Pennies From Heaven
TTITLE6=Don't Cry Joe
TTITLE7=I'm Always Chasing Rainbows
TTITLE8=Keep Smiling at Trouble
TTITLE9=In The Still of the Night
TTITLE10=All of Me
TTITLE11=What Do You Know About Love?
TTITLE12=If Ever I Would Leave You
TTITLE13=The Best Thing For You
TTITLE14=But Not For Me
TTITLE15=My Man
TTITLE16=The Lamp is Low
TTITLE17=See What the Boys in the Back Room Will Have
TTITLE18=Bill Bailey, Won't You Please Come Home
TTITLE19=Swing Low Sweet Chariot
EXTD=YEAR: 2004
EXTT0=
EXTT1=
EXTT2=
EXTT3=
EXTT4=
EXTT5=
EXTT6=
EXTT7=
EXTT8=
EXTT9=
EXTT10=
EXTT11=
EXTT12=
EXTT13=
EXTT14=
EXTT15=
EXTT16=
EXTT17=
EXTT18=
EXTT19=
PLAYORDER=
